<svg width="300" height="285" viewBox="0 0 300 285" fill="none" xmlns="http://www.w3.org/2000/svg">
<!-- <g clip-path="url(#clip0)"> -->
<path d="M273.701 284.716V256.134C273.701 256.134 285.038 276.397 273.701 284.716Z" fill="#F1F1F1"/>
<path d="M274.401 284.711L252.971 265.382C252.971 265.382 275.831 270.88 274.401 284.711Z" fill="#F1F1F1"/>
<path d="M198.815 126.111L85.0948 191.412C84.6968 191.64 84.223 191.703 83.7773 191.588C83.3317 191.474 82.9506 191.19 82.7177 190.799L9.58792 67.8697C9.3559 67.4786 9.29124 67.0131 9.40811 66.5753C9.52498 66.1375 9.81385 65.7631 10.2113 65.5342L123.932 0.233554C124.33 0.00560132 124.804 -0.0579319 125.249 0.056892C125.695 0.171716 126.076 0.455521 126.309 0.846045L199.439 123.776C199.671 124.167 199.735 124.632 199.619 125.07C199.502 125.508 199.213 125.882 198.815 126.111Z" fill="white"/>
<path d="M198.815 126.111L85.0948 191.412C84.6968 191.64 84.223 191.703 83.7773 191.588C83.3317 191.474 82.9506 191.19 82.7177 190.799L9.58792 67.8697C9.3559 67.4786 9.29124 67.0131 9.40811 66.5753C9.52498 66.1375 9.81385 65.7631 10.2113 65.5342L123.932 0.233554C124.33 0.00560132 124.804 -0.0579319 125.249 0.056892C125.695 0.171716 126.076 0.455521 126.309 0.846045L199.439 123.776C199.671 124.167 199.735 124.632 199.619 125.07C199.502 125.508 199.213 125.882 198.815 126.111ZM10.5621 66.1238C10.3236 66.2611 10.1503 66.4858 10.0801 66.7485C10.01 67.0112 10.0488 67.2905 10.188 67.5251L83.3178 190.455C83.4575 190.689 83.6862 190.859 83.9536 190.928C84.221 190.997 84.5052 190.959 84.7441 190.822L198.465 125.521C198.703 125.384 198.876 125.16 198.947 124.897C199.017 124.634 198.978 124.355 198.839 124.12L125.709 1.19062C125.569 0.956295 125.341 0.786002 125.073 0.717106C124.806 0.64821 124.521 0.686337 124.283 0.823124L10.5621 66.1238Z" fill="#3F3D56"/>
<path d="M83.6621 78.3653L55.457 94.5612C55.059 94.7892 54.5852 94.8527 54.1395 94.7379C53.6939 94.6231 53.3128 94.3393 53.0799 93.9487L36.595 66.238C36.363 65.8469 36.2983 65.3814 36.4152 64.9436C36.5321 64.5058 36.8209 64.1314 37.2184 63.9025L65.4235 47.7066C65.8216 47.4786 66.2954 47.4151 66.741 47.5299C67.1866 47.6447 67.5677 47.9285 67.8006 48.3191L84.2855 76.0298C84.5176 76.4209 84.5822 76.8864 84.4653 77.3242C84.3485 77.762 84.0596 78.1364 83.6621 78.3653V78.3653ZM37.5692 64.4921C37.3307 64.6294 37.1573 64.8541 37.0872 65.1168C37.0171 65.3795 37.0559 65.6588 37.1951 65.8934L53.68 93.6042C53.8198 93.8385 54.0484 94.0088 54.3158 94.0777C54.5832 94.1466 54.8675 94.1084 55.1063 93.9716L83.3114 77.7757C83.5499 77.6384 83.7232 77.4137 83.7934 77.151C83.8635 76.8883 83.8247 76.609 83.6854 76.3744L67.2006 48.6637C67.0608 48.4293 66.8322 48.259 66.5648 48.1902C66.2974 48.1213 66.0131 48.1594 65.7743 48.2962L37.5692 64.4921Z" fill="#F2F2F2"/>
<path d="M77.5774 86.4074L49.3723 102.603C49.0141 102.809 48.5877 102.866 48.1866 102.762C47.7855 102.659 47.4425 102.404 47.2329 102.052L30.748 74.3414C30.5392 73.9894 30.481 73.5705 30.5862 73.1764C30.6914 72.7824 30.9513 72.4454 31.3091 72.2394L59.5142 56.0435C59.8724 55.8383 60.2988 55.7811 60.6999 55.8845C61.101 55.9878 61.444 56.2433 61.6536 56.5947L78.1385 84.3055C78.3473 84.6574 78.4055 85.0764 78.3003 85.4704C78.1951 85.8645 77.9352 86.2014 77.5774 86.4074V86.4074Z" fill="#FD9811"/>
<path d="M145.655 65.5085L57.4394 116.164C57.0813 116.37 56.6547 116.427 56.2535 116.324C55.8522 116.22 55.5093 115.965 55.3 115.613C55.0907 115.261 55.0322 114.842 55.1374 114.448C55.2426 114.053 55.5029 113.716 55.861 113.511L144.077 62.8554C144.254 62.7535 144.45 62.687 144.654 62.6596C144.857 62.6322 145.064 62.6445 145.263 62.6956C145.462 62.7468 145.648 62.836 145.812 62.9579C145.975 63.0799 146.113 63.2324 146.216 63.4066C146.32 63.5808 146.388 63.7734 146.416 63.9733C146.444 64.1732 146.431 64.3765 146.379 64.5717C146.327 64.7669 146.236 64.9501 146.112 65.1108C145.988 65.2716 145.833 65.4067 145.655 65.5085V65.5085Z" fill="#CCCCCC"/>
<path d="M129.788 86.8803L62.8759 125.303C62.6986 125.404 62.5026 125.471 62.2991 125.498C62.0956 125.526 61.8887 125.514 61.69 125.462C61.2888 125.359 60.9458 125.103 60.7365 124.751C60.5272 124.4 60.4687 123.98 60.5739 123.586C60.6792 123.192 60.9394 122.855 61.2976 122.649L128.21 84.2272C128.387 84.1254 128.583 84.0588 128.786 84.0314C128.99 84.004 129.197 84.0163 129.396 84.0675C129.594 84.1187 129.781 84.2078 129.944 84.3298C130.108 84.4518 130.245 84.6042 130.349 84.7784C130.453 84.9526 130.52 85.1452 130.548 85.3451C130.576 85.545 130.564 85.7484 130.512 85.9435C130.46 86.1387 130.369 86.3219 130.245 86.4826C130.12 86.6434 129.965 86.7785 129.788 86.8803V86.8803Z" fill="#CCCCCC"/>
<path d="M125.363 32.0742L86.3559 54.4728C85.9978 54.6785 85.5712 54.7359 85.17 54.6325C84.7688 54.5292 84.4258 54.2734 84.2165 53.9216C84.0072 53.5698 83.9487 53.1507 84.054 52.7565C84.1592 52.3623 84.4195 52.0253 84.7776 51.8197L123.785 29.421C124.143 29.2154 124.569 29.1579 124.971 29.2613C125.169 29.3125 125.356 29.4016 125.519 29.5236C125.683 29.6456 125.82 29.7981 125.924 29.9723C126.028 30.1465 126.095 30.339 126.123 30.5389C126.151 30.7389 126.139 30.9422 126.087 31.1374C126.035 31.3326 125.944 31.5158 125.82 31.6765C125.695 31.8372 125.54 31.9724 125.363 32.0742Z" fill="#CCCCCC"/>
<path d="M121.065 46.8028L91.7924 63.6115C91.6151 63.7133 91.4191 63.7798 91.2156 63.8072C91.0122 63.8346 90.8052 63.8224 90.6065 63.7712C90.4079 63.72 90.2214 63.6309 90.0578 63.5089C89.8942 63.3869 89.7566 63.2344 89.653 63.0602C89.5494 62.886 89.4817 62.6935 89.4538 62.4935C89.4259 62.2936 89.4384 62.0903 89.4905 61.8951C89.5426 61.6999 89.6333 61.5167 89.7574 61.356C89.8816 61.1953 90.0368 61.0601 90.2141 60.9583L119.486 44.1496C119.844 43.944 120.271 43.8865 120.672 43.9899C121.073 44.0933 121.416 44.349 121.626 44.7008C121.835 45.0527 121.894 45.4718 121.788 45.866C121.683 46.2602 121.423 46.5971 121.065 46.8028Z" fill="#CCCCCC"/>
<path d="M156.528 83.7859L68.3124 134.441C67.9543 134.647 67.5277 134.704 67.1265 134.601C66.7253 134.498 66.3823 134.242 66.173 133.89C65.9637 133.538 65.9052 133.119 66.0104 132.725C66.1156 132.331 66.3759 131.994 66.734 131.788L154.95 81.1327C155.308 80.9271 155.735 80.8696 156.136 80.973C156.537 81.0764 156.88 81.3321 157.089 81.6839C157.299 82.0358 157.357 82.4549 157.252 82.8491C157.147 83.2432 156.886 83.5802 156.528 83.7859V83.7859Z" fill="#CCCCCC"/>
<path d="M140.661 105.158L73.7489 143.58C73.5716 143.682 73.3756 143.748 73.1721 143.776C72.9686 143.803 72.7616 143.791 72.563 143.74C72.3643 143.688 72.1778 143.599 72.0142 143.477C71.8506 143.355 71.7131 143.203 71.6095 143.029C71.5058 142.855 71.4381 142.662 71.4102 142.462C71.3823 142.262 71.3948 142.059 71.4469 141.864C71.499 141.668 71.5897 141.485 71.7139 141.325C71.8381 141.164 71.9932 141.029 72.1705 140.927L139.083 102.505C139.26 102.403 139.456 102.336 139.659 102.309C139.863 102.281 140.07 102.294 140.269 102.345C140.467 102.396 140.654 102.485 140.817 102.607C140.981 102.729 141.118 102.882 141.222 103.056C141.326 103.23 141.393 103.423 141.421 103.622C141.449 103.822 141.437 104.026 141.385 104.221C141.333 104.416 141.242 104.599 141.118 104.76C140.993 104.921 140.838 105.056 140.661 105.158V105.158Z" fill="#CCCCCC"/>
<path d="M167.401 102.063L79.1854 152.718C79.0081 152.82 78.8121 152.887 78.6086 152.914C78.4051 152.942 78.1981 152.929 77.9995 152.878C77.8008 152.827 77.6143 152.738 77.4507 152.616C77.2871 152.494 77.1496 152.341 77.046 152.167C76.9423 151.993 76.8746 151.8 76.8467 151.601C76.8188 151.401 76.8313 151.197 76.8834 151.002C76.9355 150.807 77.0262 150.624 77.1504 150.463C77.2746 150.302 77.4297 150.167 77.607 150.065L165.823 99.4099C166 99.3081 166.196 99.2416 166.4 99.2142C166.603 99.1868 166.81 99.199 167.009 99.2502C167.208 99.3014 167.394 99.3905 167.558 99.5125C167.721 99.6345 167.859 99.7869 167.962 99.9612C168.066 100.135 168.134 100.328 168.162 100.528C168.19 100.728 168.177 100.931 168.125 101.126C168.073 101.321 167.982 101.505 167.858 101.665C167.734 101.826 167.579 101.961 167.401 102.063V102.063Z" fill="#CCCCCC"/>
<path d="M172.838 111.202L84.6219 161.857C84.4446 161.959 84.2486 162.025 84.0451 162.053C83.8416 162.08 83.6347 162.068 83.436 162.017C83.2373 161.966 83.0509 161.877 82.8873 161.755C82.7237 161.633 82.5861 161.48 82.4825 161.306C82.3789 161.132 82.3112 160.939 82.2833 160.739C82.2554 160.539 82.2679 160.336 82.32 160.141C82.3721 159.946 82.4628 159.762 82.5869 159.602C82.7111 159.441 82.8663 159.306 83.0436 159.204L171.26 108.549C171.437 108.447 171.633 108.38 171.836 108.353C172.04 108.325 172.247 108.338 172.445 108.389C172.644 108.44 172.831 108.529 172.994 108.651C173.158 108.773 173.295 108.926 173.399 109.1C173.503 109.274 173.57 109.467 173.598 109.667C173.626 109.866 173.614 110.07 173.562 110.265C173.509 110.46 173.419 110.643 173.295 110.804C173.17 110.965 173.015 111.1 172.838 111.202V111.202Z" fill="#CCCCCC"/>
<path d="M144.311 146.777C145.536 145.359 146.639 143.844 147.609 142.245C148.478 140.804 149.331 139.263 149.523 137.572C149.621 136.852 149.544 136.119 149.3 135.434C149.055 134.748 148.65 134.129 148.116 133.627C147.6 133.159 146.945 132.865 146.248 132.787C145.551 132.709 144.846 132.852 144.236 133.193C143.62 133.541 143.11 134.047 142.761 134.656C142.413 135.265 142.238 135.956 142.257 136.654C142.307 137.424 142.533 138.172 142.918 138.843C143.304 139.515 143.839 140.092 144.483 140.532C147.09 142.388 151.163 142.291 153.942 140.878C157.072 139.287 158.689 135.125 156.23 132.276C155.719 131.683 154.867 132.346 154.995 132.985C155.158 133.848 155.65 134.618 156.371 135.137C157.092 135.657 157.987 135.886 158.874 135.778C159.761 135.67 160.573 135.234 161.144 134.558C161.714 133.882 162 133.018 161.944 132.141L160.839 132.776C162.194 133.366 163.684 133.595 165.158 133.439C166.631 133.284 168.038 132.75 169.235 131.891C169.827 131.468 170.356 130.966 170.806 130.399C171.347 129.706 172.256 129.257 172.993 128.758L178.297 125.157C179.077 124.627 178.335 123.365 177.549 123.899L172.745 127.16C171.944 127.704 171.138 128.24 170.343 128.791C169.774 129.184 169.424 129.819 168.906 130.286C167.926 131.152 166.716 131.727 165.417 131.943C164.117 132.159 162.782 132.007 161.566 131.506C161.453 131.447 161.326 131.416 161.198 131.419C161.069 131.421 160.943 131.455 160.832 131.519C160.722 131.583 160.629 131.674 160.564 131.782C160.499 131.891 160.463 132.015 160.461 132.141C160.519 132.664 160.365 133.189 160.032 133.6C159.699 134.012 159.214 134.278 158.682 134.34C158.15 134.402 157.615 134.255 157.193 133.931C156.771 133.607 156.496 133.132 156.429 132.61L155.194 133.319C156.781 135.157 155.724 137.976 153.897 139.21C151.853 140.589 148.832 140.828 146.528 139.971C145.963 139.78 145.444 139.476 145.004 139.079C144.563 138.682 144.211 138.2 143.969 137.664C143.744 137.179 143.68 136.637 143.786 136.114C143.891 135.592 144.161 135.115 144.557 134.751C144.9 134.418 145.361 134.229 145.843 134.224C146.326 134.218 146.791 134.398 147.141 134.724C147.523 135.106 147.803 135.575 147.956 136.089C148.11 136.603 148.133 137.146 148.022 137.671C147.785 139.13 146.963 140.476 146.199 141.723C145.327 143.144 144.34 144.494 143.249 145.76C142.637 146.471 143.692 147.496 144.311 146.777L144.311 146.777Z" fill="#FD9811"/>
<path d="M157.477 181.42C157.605 181.549 157.722 181.688 157.828 181.835L174.255 181.44L176.171 178L181.834 180.163L179.044 186.577C178.818 187.096 178.428 187.528 177.931 187.81C177.434 188.091 176.858 188.207 176.289 188.139L157.729 185.937C157.291 186.481 156.695 186.882 156.02 187.085C155.345 187.289 154.622 187.286 153.949 187.076C153.276 186.866 152.683 186.46 152.251 185.912C151.818 185.363 151.566 184.699 151.527 184.006C151.488 183.313 151.665 182.625 152.034 182.033C152.403 181.441 152.947 180.974 153.593 180.693C154.239 180.413 154.956 180.332 155.65 180.462C156.344 180.592 156.981 180.926 157.477 181.42V181.42Z" fill="#FFB7B7"/>
<path d="M211.027 279.434H205.625L203.056 258.965L211.027 258.966L211.027 279.434Z" fill="#FFB7B7"/>
<path d="M212.404 284.578L194.988 284.578V284.361C194.988 282.595 195.702 280.901 196.974 279.652C198.245 278.403 199.969 277.702 201.767 277.701H201.767L212.404 277.702L212.404 284.578Z" fill="#2F2E41"/>
<path d="M161.981 279.316L157.014 277.231L162.835 257.417L170.166 260.494L161.981 279.316Z" fill="#FFB7B7"/>
<path d="M161.191 284.578L145.175 277.856L145.262 277.657C145.968 276.033 147.302 274.751 148.97 274.093C150.639 273.435 152.505 273.455 154.158 274.149L154.159 274.149L163.941 278.255L161.191 284.578Z" fill="#2F2E41"/>
<path d="M184.773 185.854L184.382 192.073L195.799 193.273L207.745 194.529L204.229 185.086L184.773 185.854Z" fill="#FFB7B7"/>
<path d="M184.022 192.152L179.587 161.774L187.275 159.299L189.533 156.257L200.52 156.896L202.134 160.446L207.992 163.166L207.092 179.594L207.749 193.338L184.022 192.152Z" fill="#2F2E41"/>
<path d="M181.231 184.012L173.411 180.938L173.445 180.801C173.478 180.663 176.806 167 177.248 164.804C177.709 162.516 179.39 161.884 179.462 161.858L179.514 161.839L182.609 162.765L183.968 173.256L181.231 184.012Z" fill="#2F2E41"/>
<path d="M166.004 275.719L155.595 273.621L172.231 228.519L177.925 213.136C177.925 213.136 181.536 200.801 183.168 196.028L184.153 189.624L207.462 192.158C207.462 192.158 213.972 201.552 211.994 216.862L212.889 274.408L202.48 274.932L193.761 216.894L178.459 248.71C178.459 248.71 173.636 262.287 170.185 265.23L166.004 275.719Z" fill="#2F2E41"/>
<path d="M198.114 194.294C198.298 194.29 198.481 194.3 198.663 194.324L209.537 182.221L208.272 178.501L213.736 175.892L216.627 182.263C216.861 182.778 216.918 183.353 216.79 183.903C216.663 184.452 216.357 184.946 215.92 185.31L201.657 197.184C201.766 197.869 201.659 198.571 201.352 199.196C201.045 199.821 200.551 200.339 199.937 200.682C199.323 201.024 198.617 201.175 197.914 201.114C197.21 201.053 196.542 200.782 195.999 200.339C195.455 199.896 195.062 199.301 194.871 198.633C194.681 197.964 194.702 197.255 194.931 196.599C195.161 195.943 195.588 195.371 196.157 194.959C196.726 194.547 197.408 194.316 198.114 194.294V194.294Z" fill="#FFB7B7"/>
<path d="M208.669 183.399L204.133 172.916L205.902 165.614L207.808 163.248C207.948 163.189 208.098 163.159 208.25 163.161C208.402 163.162 208.552 163.194 208.69 163.256C209.393 163.534 209.992 164.386 210.47 165.788L214.721 177.685L208.669 183.399Z" fill="#2F2E41"/>
<path d="M185.134 152.372V144.469C185.134 141.66 186.27 138.967 188.292 136.981C190.313 134.995 193.055 133.879 195.914 133.879C198.772 133.879 201.514 134.995 203.536 136.981C205.557 138.967 206.693 141.66 206.693 144.469V152.372C206.692 152.75 206.54 153.111 206.268 153.378C205.997 153.645 205.629 153.795 205.245 153.795H186.582C186.198 153.795 185.83 153.645 185.559 153.378C185.287 153.111 185.135 152.75 185.134 152.372V152.372Z" fill="#2F2E41"/>
<path d="M193.699 153.611C198.063 153.611 201.602 150.135 201.602 145.847C201.602 141.558 198.063 138.082 193.699 138.082C189.334 138.082 185.796 141.558 185.796 145.847C185.796 150.135 189.334 153.611 193.699 153.611Z" fill="#FFB7B7"/>
<path d="M182.584 145.101C182.587 142.88 183.486 140.751 185.085 139.181C186.683 137.61 188.85 136.727 191.111 136.724H192.72C194.981 136.727 197.148 137.61 198.747 139.181C200.345 140.751 201.244 142.88 201.247 145.101V145.26H197.847L196.687 142.069L196.455 145.26H194.698L194.113 143.65L193.996 145.26H182.584L182.584 145.101Z" fill="#2F2E41"/>
<path d="M192.921 154.684C192.761 154.471 192.666 154.219 192.646 153.956C192.626 153.692 192.682 153.429 192.807 153.196C194.512 150.01 196.899 144.123 193.731 140.492L193.503 140.231H202.702V153.799L194.346 155.248C194.261 155.263 194.175 155.27 194.089 155.27C193.861 155.27 193.636 155.217 193.433 155.115C193.23 155.013 193.055 154.865 192.921 154.684V154.684Z" fill="#2F2E41"/>
<path d="M85.6182 274.963L90.4995 276.677L99.5513 258.995L92.3469 256.465L85.6182 274.963Z" fill="#9F616A"/>
<path d="M82.6819 279.175L84.9427 272.96L94.5558 276.336C96.1794 276.908 97.5057 278.089 98.2438 279.621C98.9819 281.153 99.0714 282.909 98.4928 284.506L98.4216 284.701L82.6819 279.175Z" fill="#2F2E41"/>
<path d="M117.36 279.707L122.544 279.706L125.01 260.063L117.36 260.063L117.36 279.707Z" fill="#9F616A"/>
<path d="M116.038 278.044L126.247 278.044H126.247C127.101 278.044 127.947 278.209 128.737 278.53C129.526 278.851 130.243 279.322 130.847 279.916C131.451 280.509 131.931 281.214 132.258 281.989C132.585 282.765 132.753 283.596 132.753 284.435V284.643L116.038 284.644L116.038 278.044Z" fill="#2F2E41"/>
<path d="M105.546 154.206L107.801 149.83C107.801 149.83 116.199 151.897 116.963 156.679L105.546 154.206Z" fill="#F1F1F1"/>
<path d="M96.2445 204.249L102.375 237.861L86.0964 266.146L95.8214 269.884L112.312 242.467L114.426 234.989L115.694 274.038L124.465 273.777L128.486 237.315L122.036 203.418L96.2445 204.249Z" fill="#2F2E41"/>
<path d="M107.882 212.195C98.8757 212.195 93.1572 210.502 93.0291 210.476L92.8217 210.432L97.513 189.063L97.7242 169.352C97.7242 160.999 103.32 154.841 104.096 154.273C104.227 153.766 104.469 153.293 104.805 152.887C105.141 152.481 105.563 152.153 106.042 151.924C107.908 151.092 110.189 152.09 110.285 152.133L117.131 154.655L117.163 154.748C117.245 154.987 126.262 184.07 126.262 184.07C126.262 184.07 125.717 209.48 125.526 210.313C125.526 210.313 112.887 212.195 107.882 212.195Z" fill="#3F3D56"/>
<path d="M114.803 148.452C119.913 148.452 124.056 144.382 124.056 139.361C124.056 134.341 119.913 130.271 114.803 130.271C109.693 130.271 105.55 134.341 105.55 139.361C105.55 144.382 109.693 148.452 114.803 148.452Z" fill="#9F616A"/>
<path opacity="0.2" d="M104.486 170.964L120.674 193.154L123.064 182.791L104.486 170.964Z" fill="black"/>
<path d="M155.237 186.062C154.782 186.416 154.253 186.667 153.689 186.799C153.124 186.93 152.536 186.938 151.968 186.822C151.4 186.707 150.864 186.47 150.399 186.129C149.934 185.787 149.55 185.35 149.276 184.848L135.343 187.039L138.361 180.474L151.129 179.399C152.019 179.002 153.026 178.939 153.96 179.223C154.894 179.507 155.689 180.117 156.195 180.938C156.702 181.759 156.884 182.735 156.707 183.679C156.531 184.623 156.008 185.471 155.237 186.062H155.237Z" fill="#9F616A"/>
<path d="M139.079 180.1L144.085 179.618L145.472 186.479L139.173 186.588L139.079 180.1Z" fill="#F1F1F1"/>
<path d="M143.182 188.869L118.664 186.725L106.283 167.38L106.245 167.209C105.894 165.629 106.14 163.977 106.937 162.562C107.735 161.147 109.029 160.066 110.579 159.52C112.129 158.974 113.828 159 115.359 159.595C116.89 160.189 118.148 161.311 118.899 162.75L126.167 176.678L140.834 178.856L143.182 188.869Z" fill="#3F3D56"/>
<path d="M106.922 147.254L114.602 147.525C115.07 147.541 116.34 142.578 116.506 141.548C116.638 140.878 117.013 140.277 117.562 139.859C118.111 139.44 118.797 139.233 119.49 139.275C120.065 139.328 121.515 138.273 123.011 137.023C125.851 134.651 125.703 130.196 122.583 128.192C122.498 128.137 122.414 128.087 122.332 128.041C120.364 126.959 118.062 126.596 115.807 126.568C113.762 126.543 111.66 126.796 109.859 127.746C106.63 129.451 104.911 133.175 104.76 136.774C104.61 140.372 105.784 143.89 107.116 147.245" fill="#2F2E41"/>
<path d="M299.438 285H0.402145C0.295489 285 0.193202 284.958 0.117785 284.884C0.0423684 284.81 0 284.71 0 284.605C0 284.5 0.0423684 284.4 0.117785 284.326C0.193202 284.251 0.295489 284.21 0.402145 284.21H299.598C299.705 284.21 299.807 284.251 299.882 284.326C299.958 284.4 300 284.5 300 284.605C300 284.823 299.66 285 299.438 285Z" fill="#CBCBCB"/>
<!-- </g> -->
<defs>
<clipPath id="clip0">
<rect width="300" height="285" fill="white"/>
</clipPath>
</defs>
</svg>
