<svg width="300" height="175" viewBox="0 0 300 175" fill="none" xmlns="http://www.w3.org/2000/svg">
<!-- <g clip-path="url(#clip0)"> -->
<path d="M290.441 148.226C287.568 158.113 279.179 165.035 270.429 170.915C269.207 171.736 267.985 172.538 266.762 173.322C266.754 173.325 266.745 173.333 266.737 173.337C266.678 173.374 266.619 173.412 266.564 173.449C266.312 173.611 266.059 173.772 265.809 173.932L265.947 173.993C265.947 173.993 266.082 174.064 265.934 174.004C265.89 173.986 265.844 173.97 265.8 173.951C260.716 171.917 255.543 169.734 251.647 165.923C247.605 161.966 245.244 155.76 247.432 150.562C247.72 149.881 248.083 149.234 248.515 148.633C248.693 148.381 248.884 148.14 249.083 147.903C250.29 146.442 251.868 145.325 253.654 144.669C255.44 144.013 257.37 143.841 259.246 144.17C261.121 144.499 262.874 145.318 264.325 146.542C265.776 147.767 266.872 149.352 267.5 151.136C268.143 145.197 263.207 140.223 258.457 136.553C253.705 132.885 248.306 128.89 247.387 122.984C246.874 119.699 248.026 116.514 250.124 113.958C250.188 113.881 250.253 113.803 250.32 113.728C252.874 110.751 256.466 108.839 260.379 108.374C267.665 107.623 274.743 111.449 280.037 116.475C288.557 124.562 293.707 136.983 290.441 148.226Z" fill="#F2F2F2"/>
<path d="M276.745 135.292C278.144 137.451 279.217 139.8 279.932 142.266C280.537 144.47 280.806 146.751 280.731 149.034C280.536 153.732 279.206 158.315 276.854 162.396C275.083 165.493 272.924 168.355 270.429 170.915C269.207 171.736 267.985 172.538 266.762 173.322C266.754 173.325 266.745 173.333 266.737 173.337C266.678 173.374 266.619 173.412 266.564 173.449C266.312 173.611 266.059 173.772 265.809 173.932C265.809 173.932 266.082 174.064 265.934 174.004C265.89 173.986 265.844 173.97 265.8 173.951C266.256 170.246 265.809 166.485 264.499 162.986C263.188 159.486 261.05 156.35 258.266 153.838C255.474 151.365 252.133 149.582 248.515 148.633C248.693 148.381 248.884 148.14 249.083 147.903C250.48 148.292 251.84 148.803 253.147 149.429C257.818 151.654 261.643 155.313 264.056 159.862C266.22 163.994 267.152 168.652 266.741 173.29C266.95 173.103 267.159 172.911 267.362 172.721C271.225 169.148 274.656 165.047 276.978 160.314C278.993 156.305 279.983 151.867 279.861 147.39C279.672 142.508 277.711 137.986 274.872 134.049C271.761 129.85 268.085 126.092 263.948 122.88C259.778 119.566 255.215 116.772 250.36 114.558C250.251 114.507 250.165 114.417 250.121 114.305C250.077 114.194 250.078 114.069 250.124 113.958C250.156 113.859 250.227 113.776 250.32 113.728C250.368 113.707 250.421 113.697 250.473 113.7C250.526 113.702 250.577 113.716 250.623 113.74C251.222 114.014 251.818 114.292 252.408 114.581C257.325 116.992 261.922 120 266.092 123.536C270.12 126.943 273.912 130.835 276.745 135.292Z" fill="white"/>
<path d="M173.986 89.5965C174.58 89.3826 175.12 89.042 175.568 88.5986C176.016 88.1553 176.36 87.6199 176.576 87.0304C176.793 86.4408 176.876 85.8113 176.821 85.1862C176.766 84.5611 176.573 83.9557 176.256 83.4125L186.306 71.8696L178.383 70.8466L170.054 81.9647C169.17 82.553 168.534 83.4427 168.266 84.4653C167.999 85.4878 168.119 86.5722 168.603 87.5129C169.088 88.4536 169.903 89.1853 170.895 89.5693C171.887 89.9534 172.987 89.963 173.986 89.5965H173.986Z" fill="#FFB8B8"/>
<path d="M230.633 92.0356C231.05 91.5638 231.358 91.0071 231.535 90.4045C231.711 89.802 231.753 89.1684 231.656 88.5483C231.559 87.9283 231.326 87.3368 230.974 86.8157C230.621 86.2945 230.158 85.8563 229.617 85.5319L232.812 70.6121L225.373 73.5055L223.48 87.23C222.991 88.1684 222.866 89.2523 223.129 90.2761C223.391 91.2998 224.023 92.1925 224.905 92.7849C225.787 93.3772 226.857 93.6281 227.913 93.49C228.968 93.3519 229.937 92.8344 230.633 92.0356V92.0356Z" fill="#FFB8B8"/>
<path d="M194.637 169.792L189.363 169.792L186.853 149.608L194.638 149.608L194.637 169.792Z" fill="#FFB8B8"/>
<path d="M195.983 174.865L178.975 174.864V174.651C178.975 173.788 179.146 172.934 179.479 172.137C179.811 171.341 180.299 170.617 180.914 170.007C181.528 169.397 182.258 168.913 183.061 168.583C183.865 168.253 184.725 168.083 185.595 168.083H185.595L195.983 168.084L195.983 174.865Z" fill="#2F2E41"/>
<path d="M220.452 169.792L215.177 169.792L212.668 149.608L220.453 149.608L220.452 169.792Z" fill="#FFB8B8"/>
<path d="M221.797 174.865L204.789 174.864V174.651C204.789 173.788 204.961 172.934 205.293 172.137C205.626 171.341 206.114 170.617 206.728 170.007C207.343 169.397 208.073 168.913 208.876 168.583C209.679 168.253 210.54 168.083 211.409 168.083H211.41L221.797 168.084L221.797 174.865Z" fill="#2F2E41"/>
<path d="M195.187 159.253L187.72 158.956C187.211 158.935 186.731 158.715 186.383 158.345C186.035 157.975 185.848 157.484 185.862 156.979L187.966 88.5241L188.103 88.475C201.19 83.7786 212.016 84.1337 221.2 89.5591L221.303 89.62L222.563 156.292C222.568 156.547 222.522 156.8 222.427 157.038C222.332 157.275 222.19 157.491 222.009 157.673C221.829 157.855 221.614 158 221.377 158.099C221.14 158.198 220.885 158.249 220.628 158.249H214.331C213.883 158.248 213.448 158.093 213.102 157.81C212.756 157.528 212.519 157.135 212.431 156.698L203.855 113.414C203.825 113.264 203.742 113.13 203.622 113.036C203.502 112.941 203.351 112.892 203.198 112.898C203.044 112.903 202.897 112.963 202.784 113.066C202.671 113.169 202.599 113.309 202.581 113.461L197.186 157.565C197.127 158.03 196.899 158.458 196.545 158.769C196.192 159.079 195.736 159.252 195.263 159.254C195.238 159.254 195.212 159.254 195.187 159.253Z" fill="#2F2E41"/>
<path d="M202.451 28.4917C208.287 28.4917 213.018 23.7981 213.018 18.0083C213.018 12.2185 208.287 7.52493 202.451 7.52493C196.615 7.52493 191.884 12.2185 191.884 18.0083C191.884 23.7981 196.615 28.4917 202.451 28.4917Z" fill="#FFB8B8"/>
<path d="M177.557 81.264C177.19 81.1205 176.877 80.8695 176.657 80.5445L174.616 77.5133C174.395 77.1846 174.282 76.7968 174.291 76.4021C174.3 76.0075 174.431 75.6252 174.667 75.3069L182.898 64.2231L188.055 39.6757C188.352 38.9176 188.796 38.2249 189.362 37.6373C189.929 37.0496 190.607 36.5785 191.357 36.2509C192.107 35.9232 192.915 35.7455 193.735 35.7279C194.554 35.7103 195.369 35.8531 196.133 36.1481C196.897 36.4432 197.594 36.8847 198.186 37.4475C198.778 38.0102 199.252 38.6832 199.581 39.4278C199.91 40.1725 200.089 40.9742 200.105 41.7872C200.122 42.6003 199.977 43.4086 199.679 44.166L197.242 59.7886C196.503 64.5302 194.053 68.8442 190.348 71.9279L179.512 80.9487C179.303 81.122 179.061 81.2499 178.799 81.324C178.537 81.3981 178.263 81.4168 177.994 81.3788C177.844 81.3578 177.697 81.3193 177.557 81.264V81.264Z" fill="#FD9811"/>
<path d="M230.182 82.3763C229.811 82.5088 229.409 82.526 229.028 82.4257L225.476 81.4888C225.092 81.3865 224.749 81.1696 224.493 80.8673C224.237 80.5651 224.081 80.1922 224.045 79.7991L222.842 66.0837L210.364 44.2775C210.082 43.5141 209.954 42.7031 209.988 41.8907C210.023 41.0784 210.218 40.2807 210.563 39.5432C210.908 38.8056 211.396 38.1428 211.999 37.5926C212.602 37.0423 213.309 36.6154 214.079 36.3363C214.849 36.0571 215.666 35.9312 216.485 35.9657C217.304 36.0002 218.108 36.1945 218.851 36.5374C219.594 36.8804 220.262 37.3652 220.816 37.9643C221.37 38.5633 221.799 39.2649 222.08 40.0287L230.655 53.3531C233.259 57.3968 234.293 62.2409 233.565 66.9843L231.44 80.8582C231.399 81.1249 231.301 81.3801 231.154 81.6071C231.008 81.8342 230.814 82.028 230.587 82.176C230.46 82.2583 230.324 82.3256 230.182 82.3763V82.3763Z" fill="#FD9811"/>
<path d="M190.893 36.6254C192.708 34.6508 194.946 33.1056 197.444 32.1039C199.941 31.1022 202.633 30.6695 205.322 30.8378C205.498 30.8486 205.674 30.8609 205.85 30.8745H205.85C208.398 31.0744 210.874 31.8116 213.111 33.0369C215.349 34.2622 217.297 35.9474 218.826 37.9797C220.38 40.0404 221.473 42.4065 222.031 44.9198C222.589 47.4331 222.6 50.0357 222.063 52.5536C220.014 62.176 220.533 72.1624 223.568 81.5251L226.403 90.2576C226.494 90.5374 226.518 90.8341 226.475 91.125C226.433 91.4159 226.323 91.6931 226.155 91.9353C225.987 92.1774 225.765 92.3781 225.506 92.5217C225.248 92.6654 224.96 92.7483 224.664 92.7639L210.171 93.5369L206.462 87.1816V93.7347L188.847 94.6742C188.812 94.6763 188.778 94.6771 188.743 94.6771C188.476 94.677 188.211 94.622 187.966 94.5156C187.722 94.4091 187.502 94.2536 187.32 94.0586C187.139 93.8637 187.001 93.6337 186.913 93.383C186.826 93.1324 186.792 92.8665 186.814 92.6022L188.805 68.1099L186.307 51.4752C185.903 48.8174 186.105 46.1034 186.899 43.5334C187.692 40.9633 189.057 38.6027 190.893 36.6254V36.6254Z" fill="#FD9811"/>
<path d="M209.795 28.0162C208.817 28.5746 204.95 28.945 204.674 27.859L204.668 27.8351C204.476 27.0395 204.636 26.2086 204.691 25.3923C204.746 24.5761 204.665 23.6794 204.105 23.0792C203.06 21.9604 201.202 22.5535 199.691 22.2706C198.806 22.0747 198.024 21.5656 197.49 20.8387C196.956 20.1117 196.708 19.2167 196.791 18.3212C196.813 18.1515 196.847 17.9817 196.884 17.8119C196.979 17.3818 196.972 16.9359 196.863 16.509C196.755 16.0822 196.548 15.6861 196.259 15.3519C195.97 15.0177 195.607 14.7544 195.199 14.5828C194.79 14.4111 194.347 14.3357 193.904 14.3626C192.378 14.4492 190.73 14.908 189.467 13.7863C188.49 12.9189 188.252 10.6609 188.681 9.43209C189.402 7.36696 194.022 6.28583 196.039 5.6915C198.534 4.97643 201.158 4.82184 203.72 5.23896C206.282 5.65608 208.719 6.63443 210.852 8.10289C212.126 8.99378 213.316 10.1132 213.859 11.5627C214.402 13.0121 214.14 14.8408 212.916 15.7977C213.865 16.7946 214.533 18.0215 214.854 19.3554C215.175 20.6893 215.136 22.0834 214.743 23.398C214.138 25.3313 211.252 27.1848 209.795 28.0162Z" fill="#2F2E41"/>
<path d="M114.445 58.9024H19.361C19.2469 58.9024 19.1374 58.8574 19.0567 58.7774C18.9761 58.6974 18.9307 58.5888 18.9307 58.4756C18.9307 58.3624 18.9761 58.2538 19.0567 58.1738C19.1374 58.0937 19.2469 58.0488 19.361 58.0488H114.445C114.559 58.0488 114.668 58.0937 114.749 58.1738C114.83 58.2538 114.875 58.3624 114.875 58.4756C114.875 58.5888 114.83 58.6974 114.749 58.7774C114.668 58.8574 114.559 58.9024 114.445 58.9024Z" fill="#E6E6E6"/>
<path d="M93.6203 58.9024H39.5824C39.4683 58.9024 39.3589 58.8574 39.2782 58.7774C39.1975 58.6974 39.1522 58.5888 39.1522 58.4756C39.1522 58.3624 39.1975 58.2538 39.2782 58.1738C39.3589 58.0937 39.4683 58.0488 39.5824 58.0488H93.6203C93.7344 58.0488 93.8438 58.0937 93.9245 58.1738C94.0052 58.2538 94.0505 58.3624 94.0505 58.4756C94.0505 58.5888 94.0052 58.6974 93.9245 58.7774C93.8438 58.8574 93.7344 58.9024 93.6203 58.9024Z" fill="#3F3D56"/>
<path d="M67.118 58.9024C67.0039 58.9024 66.8945 58.8575 66.8138 58.7774C66.7331 58.6974 66.6877 58.5888 66.6877 58.4756V31.5854C66.6877 31.4722 66.7331 31.3636 66.8138 31.2836C66.8945 31.2035 67.0039 31.1585 67.118 31.1585C67.2321 31.1585 67.3415 31.2035 67.4222 31.2836C67.5029 31.3636 67.5482 31.4722 67.5482 31.5854V58.4756C67.5482 58.5888 67.5029 58.6974 67.4222 58.7774C67.3415 58.8575 67.2321 58.9024 67.118 58.9024V58.9024Z" fill="#3F3D56"/>
<path d="M94.2233 58.9024C94.1092 58.9024 93.9998 58.8575 93.9191 58.7774C93.8384 58.6974 93.7931 58.5888 93.7931 58.4756V4.69511C93.7931 4.58191 93.8384 4.47334 93.9191 4.3933C93.9998 4.31325 94.1092 4.26828 94.2233 4.26828C94.3374 4.26828 94.4469 4.31325 94.5275 4.3933C94.6082 4.47334 94.6535 4.58191 94.6535 4.69511V58.4756C94.6535 58.5888 94.6082 58.6974 94.5275 58.7774C94.4468 58.8575 94.3374 58.9024 94.2233 58.9024V58.9024Z" fill="#3F3D56"/>
<path d="M4.73268 9.39024C7.34646 9.39024 9.46536 7.28817 9.46536 4.69512C9.46536 2.10208 7.34646 0 4.73268 0C2.11889 0 0 2.10208 0 4.69512C0 7.28817 2.11889 9.39024 4.73268 9.39024Z" fill="#E6E6E6"/>
<path d="M4.73268 36.2805C7.34646 36.2805 9.46536 34.1784 9.46536 31.5854C9.46536 28.9923 7.34646 26.8903 4.73268 26.8903C2.11889 26.8903 0 28.9923 0 31.5854C0 34.1784 2.11889 36.2805 4.73268 36.2805Z" fill="#E6E6E6"/>
<path d="M4.73268 63.1707C7.34646 63.1707 9.46536 61.0687 9.46536 58.4756C9.46536 55.8826 7.34646 53.7805 4.73268 53.7805C2.11889 53.7805 0 55.8826 0 58.4756C0 61.0687 2.11889 63.1707 4.73268 63.1707Z" fill="#E6E6E6"/>
<path d="M114.445 5.12194H19.361C19.2469 5.12194 19.1374 5.07696 19.0567 4.99692C18.9761 4.91687 18.9307 4.80831 18.9307 4.69511C18.9307 4.58191 18.9761 4.47334 19.0567 4.3933C19.1374 4.31325 19.2469 4.26828 19.361 4.26828H114.445C114.559 4.26828 114.668 4.31325 114.749 4.3933C114.83 4.47334 114.875 4.58191 114.875 4.69511C114.875 4.80831 114.83 4.91687 114.749 4.99692C114.668 5.07696 114.559 5.12194 114.445 5.12194Z" fill="#E6E6E6"/>
<path d="M114.445 32.0122H19.361C19.2469 32.0122 19.1374 31.9672 19.0567 31.8872C18.9761 31.8071 18.9307 31.6986 18.9307 31.5854C18.9307 31.4722 18.9761 31.3636 19.0567 31.2836C19.1374 31.2035 19.2469 31.1585 19.361 31.1585H114.445C114.559 31.1585 114.668 31.2035 114.749 31.2836C114.83 31.3636 114.875 31.4722 114.875 31.5854C114.875 31.6986 114.83 31.8071 114.749 31.8872C114.668 31.9672 114.559 32.0122 114.445 32.0122Z" fill="#E6E6E6"/>
<path d="M39.7975 63.1707C42.4113 63.1707 44.5302 61.0687 44.5302 58.4756C44.5302 55.8826 42.4113 53.7805 39.7975 53.7805C37.1837 53.7805 35.0648 55.8826 35.0648 58.4756C35.0648 61.0687 37.1837 63.1707 39.7975 63.1707Z" fill="#FD9811"/>
<path d="M67.118 36.2805C69.7318 36.2805 71.8507 34.1784 71.8507 31.5854C71.8507 28.9923 69.7318 26.8903 67.118 26.8903C64.5042 26.8903 62.3853 28.9923 62.3853 31.5854C62.3853 34.1784 64.5042 36.2805 67.118 36.2805Z" fill="#FD9811"/>
<path d="M67.118 63.1707C69.7318 63.1707 71.8507 61.0687 71.8507 58.4756C71.8507 55.8826 69.7318 53.7805 67.118 53.7805C64.5042 53.7805 62.3853 55.8826 62.3853 58.4756C62.3853 61.0687 64.5042 63.1707 67.118 63.1707Z" fill="#FD9811"/>
<path d="M94.2233 9.39024C96.8371 9.39024 98.956 7.28817 98.956 4.69512C98.956 2.10208 96.8371 0 94.2233 0C91.6096 0 89.4907 2.10208 89.4907 4.69512C89.4907 7.28817 91.6096 9.39024 94.2233 9.39024Z" fill="#FD9811"/>
<path d="M94.2233 36.2805C96.8371 36.2805 98.956 34.1784 98.956 31.5854C98.956 28.9923 96.8371 26.8903 94.2233 26.8903C91.6096 26.8903 89.4907 28.9923 89.4907 31.5854C89.4907 34.1784 91.6096 36.2805 94.2233 36.2805Z" fill="#FD9811"/>
<path d="M94.2233 63.1707C96.8371 63.1707 98.956 61.0687 98.956 58.4756C98.956 55.8826 96.8371 53.7805 94.2233 53.7805C91.6096 53.7805 89.4907 55.8826 89.4907 58.4756C89.4907 61.0687 91.6096 63.1707 94.2233 63.1707Z" fill="#FD9811"/>
<path d="M299.57 175H110.693C110.579 175 110.469 174.955 110.389 174.875C110.308 174.795 110.263 174.686 110.263 174.573C110.263 174.46 110.308 174.351 110.389 174.271C110.469 174.191 110.579 174.146 110.693 174.146H299.57C299.684 174.146 299.793 174.191 299.874 174.271C299.955 174.351 300 174.46 300 174.573C300 174.686 299.955 174.795 299.874 174.875C299.793 174.955 299.684 175 299.57 175Z" fill="#3F3D56"/>
<path d="M139.829 137.035C139.544 137.02 139.257 137.013 138.969 137.012C134.633 137.012 130.474 138.721 127.408 141.763C124.342 144.805 122.619 148.93 122.619 153.232H139.829V137.035Z" fill="#FD9811"/>
<path d="M143.271 175C138.822 174.995 134.557 173.24 131.412 170.119C128.266 166.998 126.497 162.767 126.492 158.354C126.492 158.24 126.537 158.132 126.618 158.052C126.698 157.972 126.808 157.927 126.922 157.927H143.701V142.157C143.701 142.099 143.713 142.041 143.736 141.988C143.759 141.935 143.793 141.887 143.835 141.847C143.877 141.807 143.927 141.776 143.982 141.756C144.037 141.735 144.095 141.727 144.154 141.73C148.522 141.959 152.627 143.87 155.595 147.057C158.563 150.244 160.16 154.454 160.045 158.792C159.93 163.129 158.112 167.251 154.979 170.278C151.846 173.306 147.645 175 143.271 175V175ZM127.358 158.78C127.441 161.83 128.413 164.791 130.156 167.304C131.899 169.817 134.338 171.776 137.179 172.944C140.02 174.111 143.141 174.437 146.165 173.883C149.189 173.328 151.986 171.916 154.219 169.818C156.451 167.72 158.024 165.026 158.745 162.06C159.467 159.095 159.308 155.985 158.286 153.108C157.265 150.23 155.425 147.708 152.99 145.845C150.554 143.983 147.627 142.86 144.562 142.612V158.354C144.562 158.467 144.516 158.575 144.436 158.655C144.355 158.736 144.246 158.78 144.132 158.78H127.358Z" fill="#3F3D56"/>
<!-- </g> -->
<defs>
<clipPath id="clip0">
<rect width="300" height="175" fill="white"/>
</clipPath>
</defs>
</svg>
