<svg width="300" height="205" viewBox="0 0 300 205" fill="none" xmlns="http://www.w3.org/2000/svg">
<!-- <g clip-path="url(#clip0)"> -->
<path d="M98.8288 204.601H93.1714C92.4522 204.6 91.7628 204.315 91.2543 203.808C90.7458 203.301 90.4598 202.614 90.459 201.897V154.894C90.4598 154.177 90.7458 153.49 91.2543 152.983C91.7628 152.476 92.4522 152.191 93.1714 152.19H98.8288C99.5479 152.191 100.237 152.476 100.746 152.983C101.254 153.49 101.54 154.177 101.541 154.894V201.897C101.54 202.614 101.254 203.301 100.746 203.808C100.237 204.315 99.5479 204.6 98.8288 204.601V204.601Z" fill="#FD9811"/>
<path d="M84.956 204.601H79.2985C78.5794 204.6 77.89 204.315 77.3815 203.808C76.873 203.301 76.587 202.614 76.5862 201.897V154.894C76.587 154.177 76.873 153.49 77.3815 152.983C77.89 152.476 78.5794 152.191 79.2985 152.19H84.956C85.6751 152.191 86.3646 152.476 86.8731 152.983C87.3815 153.49 87.6676 154.177 87.6684 154.894V201.897C87.6676 202.614 87.3815 203.301 86.8731 203.808C86.3646 204.315 85.6751 204.6 84.956 204.601V204.601Z" fill="#FD9811"/>
<path d="M90.6835 93.0573C103.124 93.0573 113.208 83.0044 113.208 70.6035C113.208 58.2027 103.124 48.1498 90.6835 48.1498C78.2433 48.1498 68.1586 58.2027 68.1586 70.6035C68.1586 83.0044 78.2433 93.0573 90.6835 93.0573Z" fill="#FD9811"/>
<path d="M103.412 78.056C104.837 77.7343 106.61 77.3337 107.785 76.0632C108.133 75.6727 108.39 75.2111 108.54 74.7109C108.69 74.2106 108.728 73.6838 108.652 73.1672C108.605 72.7988 108.473 72.4463 108.266 72.1371C108.06 71.828 107.784 71.5707 107.461 71.3853C106.624 70.9223 105.549 70.9868 104.485 71.5397L103.967 62.7895L103.085 62.8413L103.695 73.1283L104.347 72.6592C105.103 72.1155 106.205 71.6974 107.033 72.1551C107.238 72.2769 107.412 72.4443 107.541 72.6441C107.671 72.844 107.753 73.0709 107.78 73.3073C107.834 73.6922 107.805 74.0842 107.694 74.4568C107.583 74.8293 107.392 75.1736 107.136 75.4662C106.221 76.4548 104.82 76.835 103.217 77.1973L103.412 78.056Z" fill="#2F2E41"/>
<path d="M113.026 61.7693L108.358 62.6883L108.529 63.5521L113.197 62.6332L113.026 61.7693Z" fill="#2F2E41"/>
<path d="M98.2946 64.6706L93.6273 65.5896L93.7985 66.4535L98.4658 65.5345L98.2946 64.6706Z" fill="#2F2E41"/>
<path d="M96.2236 163.528H69.9621C69.1472 163.528 68.3659 163.204 67.7896 162.63C67.2134 162.056 66.8892 161.277 66.8883 160.464V121.18C66.8952 115.141 69.3046 109.352 73.5879 105.083C77.8712 100.813 83.6786 98.411 89.7361 98.4041C95.9643 98.4112 101.935 100.881 106.339 105.271C110.743 109.661 113.22 115.613 113.227 121.821V146.579C113.222 151.073 111.429 155.381 108.241 158.558C105.054 161.736 100.732 163.523 96.2236 163.528V163.528Z" fill="#2F2E41"/>
<path d="M86.4607 60.7183C87.1878 58.5453 89.7136 57.7071 91.8146 57.642C94.7682 57.5505 97.6517 58.596 100.614 58.1287C105.989 57.281 109.344 52.1177 110.39 47.1747C111.087 43.8779 111.025 40.4982 110.947 37.148C110.952 37.0189 110.919 36.891 110.853 36.7799C110.786 36.6688 110.689 36.5791 110.573 36.5217C110.457 36.4643 110.327 36.4415 110.198 36.4562C110.069 36.4708 109.947 36.5223 109.847 36.6044C107.698 38.0658 106.154 40.2537 105.499 42.7631L106.785 43.0285L107.462 37.1771C107.471 37.0322 107.433 36.8881 107.353 36.7668C107.273 36.6454 107.156 36.5533 107.019 36.5043C105.003 35.8043 103.322 37.3839 102.225 38.8783C101.657 39.6523 101.112 40.4955 100.268 40.9993C99.3885 41.4771 98.3822 41.6714 97.3875 41.5554C95.3338 41.4074 93.3866 40.6338 91.3747 40.2508C89.5271 39.908 87.643 39.8035 85.7686 39.9401C82.0593 40.1997 78.4641 41.3304 75.277 43.2398C72.0934 45.152 69.1788 47.8848 67.4892 51.2214C66.5245 53.1264 66.0008 55.3191 66.5307 57.4307C66.7428 58.3899 67.1774 59.2862 67.7997 60.0478C68.422 60.8093 69.2147 61.4149 70.1142 61.816C70.9029 62.1452 71.3319 60.8949 70.5485 60.568C69.0563 59.9453 68.1094 58.4851 67.7779 56.9476C67.3991 55.1903 67.8629 53.3722 68.6706 51.7985C70.2434 48.7337 72.9356 46.185 75.8701 44.4212C78.8574 42.6274 82.22 41.5456 85.6957 41.2602C87.3959 41.1253 89.1063 41.1995 90.7883 41.4813C92.6752 41.7947 94.4802 42.4679 96.3713 42.7652C98.4467 43.0914 100.6 42.8044 102.086 41.1946C103.178 40.0105 104.528 37.0384 106.584 37.7523L106.14 37.0795L105.464 42.9308C105.379 43.6629 106.561 43.9276 106.751 43.1961C107.341 40.9059 108.755 38.912 110.725 37.5941L109.625 37.0504C109.756 42.6053 109.873 48.7447 106.158 53.2965C104.565 55.2492 102.322 56.6778 99.774 56.9054C96.9032 57.1618 94.0849 56.1259 91.2104 56.3651C88.7247 56.572 86.0504 57.7699 85.2087 60.2853C84.9384 61.0928 86.1906 61.5254 86.4607 60.7183V60.7183Z" fill="#2F2E41"/>
<path d="M97.7823 80.4589C97.7788 80.5223 97.7744 80.5858 97.7678 80.6495C97.7155 81.1871 97.5568 81.7091 97.3009 82.1851C97.045 82.6612 96.6969 83.082 96.2767 83.4231L91.6031 87.2385C90.7562 87.928 89.6696 88.2546 88.5816 88.1466C87.4935 88.0386 86.4929 87.5049 85.7991 86.6625L74.0645 72.3791C73.373 71.5348 73.0456 70.4517 73.154 69.3671C73.2623 68.2826 73.7977 67.2851 74.6426 66.5934L79.3163 62.7783C79.7352 62.4362 80.2177 62.1797 80.736 62.0235C81.2544 61.8673 81.7986 61.8145 82.3375 61.8679C82.8763 61.9214 83.3994 62.0802 83.8767 62.3352C84.354 62.5903 84.7762 62.9365 85.1192 63.3543L96.8538 77.6377C97.5075 78.4286 97.839 79.4357 97.7823 80.4589V80.4589Z" fill="#2F2E41"/>
<path d="M82.8888 73.285C83.6976 73.285 84.3532 72.6314 84.3532 71.8252C84.3532 71.019 83.6976 70.3654 82.8888 70.3654C82.0801 70.3654 81.4244 71.019 81.4244 71.8252C81.4244 72.6314 82.0801 73.285 82.8888 73.285Z" fill="white"/>
<path d="M93.0025 73.6078L93.0013 73.6172C93.6232 73.749 94.173 74.108 94.5427 74.6237C94.9123 75.1393 95.0749 75.7742 94.9985 76.4034L89.9952 117.266C89.8344 118.577 89.1759 119.776 88.155 120.618C87.1341 121.459 85.8285 121.879 84.5069 121.79C83.1852 121.701 81.948 121.11 81.0497 120.14C80.1515 119.169 79.6605 117.893 79.6778 116.572C79.6807 116.386 79.6934 116.2 79.7161 116.015L84.7195 75.1528C84.8012 74.4857 85.1454 73.8782 85.6764 73.464C86.2074 73.0499 86.8817 72.8629 87.5509 72.9443L93.0025 73.6078Z" fill="#FD9811"/>
<path d="M259.708 48.2631C270.071 48.2631 278.472 39.8885 278.472 29.5579C278.472 19.2272 270.071 10.8526 259.708 10.8526C249.344 10.8526 240.943 19.2272 240.943 29.5579C240.943 39.8885 249.344 48.2631 259.708 48.2631Z" fill="#E4E4E4"/>
<path d="M261.901 37.41C260.685 37.3763 259.171 37.3342 258.005 36.485C257.658 36.2218 257.372 35.886 257.169 35.5013C256.966 35.1165 256.849 34.6921 256.828 34.2577C256.807 33.949 256.857 33.6396 256.976 33.3538C257.095 33.0679 257.278 32.8132 257.512 32.6097C257.86 32.3512 258.266 32.1835 258.696 32.1219C259.125 32.0603 259.563 32.1068 259.969 32.2571L258.976 25.0224L259.705 24.9228L260.873 33.4282L260.264 33.1497C259.558 32.827 258.589 32.6628 257.987 33.1699C257.839 33.3025 257.724 33.4673 257.651 33.6515C257.577 33.8357 257.547 34.0343 257.563 34.2319C257.581 34.5552 257.668 34.8709 257.82 35.1574C257.971 35.444 258.182 35.6947 258.439 35.8926C259.347 36.5534 260.553 36.6387 261.922 36.6768L261.901 37.41Z" fill="#2F2E41"/>
<path d="M255.371 25.6463H251.407V26.3799H255.371V25.6463Z" fill="#2F2E41"/>
<path d="M267.88 25.6463H263.917V26.3799H267.88V25.6463Z" fill="#2F2E41"/>
<path d="M259.708 59.1158C253.843 59.1158 248.11 57.3823 243.234 54.1344C238.358 50.8865 234.557 46.2702 232.313 40.8692C230.069 35.4682 229.482 29.5251 230.626 23.7914C231.77 18.0578 234.594 12.791 238.741 8.65729C242.888 4.52355 248.171 1.70843 253.923 0.56793C259.675 -0.572568 265.637 0.0127748 271.055 2.24994C276.473 4.48711 281.104 8.27562 284.362 13.1364C287.62 17.9972 289.359 23.7119 289.359 29.5579C289.35 37.3944 286.224 44.9075 280.665 50.4487C275.106 55.99 267.569 59.1069 259.708 59.1158V59.1158ZM259.708 0.809787C254.004 0.809787 248.428 2.49583 243.685 5.65471C238.943 8.8136 235.246 13.3034 233.064 18.5565C230.881 23.8095 230.31 29.5898 231.423 35.1664C232.535 40.743 235.282 45.8654 239.315 49.8859C243.349 53.9064 248.487 56.6444 254.081 57.7536C259.676 58.8629 265.474 58.2936 270.744 56.1177C276.014 53.9418 280.518 50.2571 283.687 45.5295C286.855 40.8019 288.547 35.2437 288.547 29.5579C288.538 21.9361 285.497 14.6289 280.091 9.23943C274.684 3.84998 267.354 0.818404 259.708 0.809787V0.809787Z" fill="#3F3D56"/>
<path d="M233.718 116.835C241.977 116.835 248.673 110.161 248.673 101.928C248.673 93.6943 241.977 87.0198 233.718 87.0198C225.458 87.0198 218.763 93.6943 218.763 101.928C218.763 110.161 225.458 116.835 233.718 116.835Z" fill="#E4E4E4"/>
<path d="M285.045 116.835C293.304 116.835 300 110.161 300 101.928C300 93.6943 293.304 87.0198 285.045 87.0198C276.786 87.0198 270.09 93.6943 270.09 101.928C270.09 110.161 276.786 116.835 285.045 116.835Z" fill="#CACACA"/>
<path d="M240.982 104.905C240.483 104.925 239.996 104.748 239.627 104.413C239.258 104.077 239.037 103.61 239.011 103.112C239.008 103.075 239.005 103.037 239.003 103H228.432C228.43 103.037 228.428 103.075 228.425 103.112C228.412 103.366 228.348 103.615 228.236 103.844C228.125 104.072 227.968 104.276 227.776 104.443C227.584 104.611 227.36 104.737 227.118 104.816C226.875 104.895 226.619 104.925 226.365 104.903C226.101 104.901 225.839 104.847 225.596 104.744C225.353 104.64 225.132 104.49 224.947 104.302C224.762 104.113 224.616 103.89 224.518 103.646C224.42 103.401 224.372 103.139 224.376 102.875V102.797C224.377 101.777 224.784 100.8 225.507 100.078C226.23 99.3573 227.211 98.9517 228.234 98.9505H239.201C240.224 98.9517 241.205 99.3573 241.929 100.078C242.652 100.8 243.059 101.777 243.06 102.797V102.875C243.064 103.139 243.015 103.401 242.917 103.646C242.819 103.89 242.673 104.113 242.488 104.302C242.304 104.49 242.083 104.64 241.84 104.744C241.596 104.847 241.335 104.901 241.07 104.903C241.041 104.904 241.012 104.905 240.982 104.905Z" fill="white"/>
<path d="M288.482 110.185C288.232 110.185 287.982 110.16 287.736 110.113C287.238 110.017 286.764 109.824 286.341 109.545C285.919 109.266 285.556 108.906 285.274 108.486L279.146 99.4193C278.576 98.5728 278.365 97.5354 278.561 96.5344C278.757 95.5334 279.343 94.6508 280.191 94.08L280.256 94.0361C280.473 93.8859 280.718 93.7799 280.977 93.7243C281.235 93.6687 281.502 93.6646 281.762 93.7123C282.022 93.7599 282.27 93.8583 282.492 94.0018C282.714 94.1454 282.905 94.3312 283.054 94.5486C283.214 94.7468 283.331 94.9749 283.401 95.2193C283.47 95.4637 283.49 95.7194 283.458 95.9714C283.426 96.2234 283.344 96.4665 283.217 96.6864C283.089 96.9063 282.919 97.0984 282.715 97.2514C282.686 97.275 282.656 97.298 282.626 97.3207L288.532 106.06C288.565 106.041 288.597 106.022 288.63 106.004C288.849 105.873 289.092 105.788 289.344 105.753C289.596 105.718 289.853 105.733 290.099 105.799C290.345 105.864 290.576 105.978 290.777 106.134C290.978 106.29 291.146 106.484 291.27 106.706C291.417 106.926 291.518 107.172 291.568 107.431C291.618 107.69 291.616 107.956 291.563 108.214C291.509 108.472 291.405 108.717 291.256 108.935C291.108 109.153 290.917 109.339 290.695 109.484L290.63 109.527C289.996 109.956 289.248 110.185 288.482 110.185V110.185Z" fill="white"/>
<path d="M186.23 205H0.483889C0.355862 205 0.233209 204.949 0.142811 204.858C0.0524141 204.768 0.00164795 204.646 0.00164795 204.518C0.00164795 204.39 0.0524141 204.268 0.142811 204.177C0.233209 204.087 0.355862 204.036 0.483889 204.036H186.23C186.358 204.036 186.481 204.087 186.571 204.177C186.662 204.268 186.713 204.39 186.713 204.518C186.713 204.646 186.662 204.768 186.571 204.858C186.481 204.949 186.358 205 186.23 205V205Z" fill="#3F3D56"/>
<!-- </g> -->
<defs>
<clipPath id="clip0">
<rect width="300" height="205" fill="white"/>
</clipPath>
</defs>
</svg>
