<svg width="280" height="290" viewBox="0 0 280 290" fill="none" xmlns="http://www.w3.org/2000/svg">
<!-- <g clip-path="url(#clip0)"> -->
<path d="M61.3492 110.653C51.9053 97.8286 34.6209 94.7335 26.0319 101.246C17.4429 107.759 15.4699 125.456 24.9137 138.28C33.6552 150.151 49.4925 153.388 58.2156 148.941C58.1874 149.08 58.1857 149.223 58.2105 149.362L58.7023 151.83C58.7398 152.018 58.824 152.193 58.947 152.339C59.07 152.484 59.2277 152.596 59.4051 152.662C59.5824 152.729 59.7736 152.748 59.9604 152.719C60.1473 152.689 60.3236 152.612 60.4726 152.493L64.6372 149.192C64.7862 149.074 64.903 148.919 64.9765 148.742C65.05 148.565 65.0777 148.372 65.057 148.182C65.0363 147.991 64.9679 147.809 64.8583 147.652C64.7487 147.496 64.6016 147.371 64.4308 147.288L62.1906 146.207C62.1118 146.171 62.029 146.145 61.9441 146.129C68.6679 138.915 70.1096 122.549 61.3492 110.653Z" fill="#CCCCCC"/>
<path d="M40.6919 105.811C45.3115 106.556 49.4731 109.071 52.3176 112.839C55.1621 116.607 56.4724 121.34 55.9781 126.059C55.8766 127.141 57.5413 127.134 57.6421 126.059C58.1184 120.972 56.6816 115.89 53.62 111.833C50.5584 107.776 46.0984 105.043 41.1343 104.183C40.0868 104.002 39.6367 105.629 40.6919 105.811Z" fill="white"/>
<path d="M278.337 126.709C283.418 111.553 276.158 95.3381 266.008 91.8337C255.857 88.3292 240.358 96.687 235.276 111.843C230.573 125.872 236.898 140.956 245.446 145.741C245.318 145.796 245.2 145.875 245.101 145.975L243.374 147.782C243.242 147.92 243.148 148.089 243.099 148.275C243.05 148.46 243.048 148.655 243.095 148.841C243.141 149.027 243.233 149.198 243.363 149.338C243.493 149.477 243.655 149.581 243.836 149.639L248.874 151.257C249.054 151.315 249.246 151.325 249.432 151.287C249.617 151.248 249.789 151.162 249.933 151.037C250.076 150.912 250.185 150.751 250.25 150.571C250.316 150.391 250.334 150.197 250.305 150.008L249.916 147.521C249.901 147.435 249.876 147.351 249.841 147.271C259.506 148.818 273.623 140.768 278.337 126.709Z" fill="#CCCCCC"/>
<path d="M270.589 106.684C272.596 110.971 272.905 115.876 271.452 120.388C269.998 124.899 266.893 128.672 262.777 130.928C261.841 131.454 262.789 132.843 263.719 132.32C268.122 129.842 271.44 125.765 273.006 120.909C274.572 116.052 274.271 110.774 272.162 106.133C271.717 105.154 270.14 105.698 270.589 106.684Z" fill="white"/>
<path d="M158.954 27.9628C158.264 11.9689 145.696 -0.462894 134.984 0.0132311C124.272 0.489357 112.823 13.9887 113.514 29.9826C114.153 44.7868 125.446 56.5097 135.123 57.8172C135.022 57.9159 134.942 58.0331 134.885 58.1626L133.922 60.4826C133.849 60.6595 133.821 60.8524 133.842 61.0431C133.863 61.2338 133.932 61.416 134.041 61.5723C134.151 61.7286 134.298 61.8539 134.469 61.9362C134.64 62.0185 134.828 62.0551 135.017 62.0426L140.291 61.6931C140.479 61.6806 140.662 61.6193 140.821 61.5152C140.98 61.411 141.109 61.2674 141.198 61.0979C141.287 60.9285 141.332 60.7388 141.328 60.547C141.324 60.3551 141.272 60.1674 141.176 60.0017L139.925 57.8285C139.879 57.7537 139.826 57.6847 139.765 57.6227C149.323 55.5022 159.595 42.7993 158.954 27.9628Z" fill="#FD9811"/>
<path d="M144.568 12.1606C147.973 15.4149 150.016 19.8716 150.277 24.6107C150.537 29.3498 148.995 34.0095 145.968 37.628C145.284 38.4635 146.664 39.4087 147.343 38.5786C150.559 34.6461 152.191 29.6253 151.912 24.523C151.632 19.4207 149.462 14.6143 145.837 11.0675C145.071 10.3198 143.797 11.4073 144.568 12.1606Z" fill="white"/>
<path d="M159.82 167.011C172.305 167.011 182.425 156.741 182.425 144.073C182.425 131.404 172.305 121.135 159.82 121.135C147.336 121.135 137.215 131.404 137.215 144.073C137.215 156.741 147.336 167.011 159.82 167.011Z" fill="#FD9811"/>
<path d="M158.793 289.515H152.559C151.831 289.514 151.133 289.22 150.618 288.698C150.104 288.176 149.814 287.468 149.813 286.729V234.006C149.814 233.267 150.104 232.559 150.618 232.037C151.133 231.515 151.831 231.221 152.559 231.22H158.793C159.521 231.221 160.218 231.515 160.733 232.037C161.248 232.559 161.537 233.267 161.538 234.006V286.729C161.537 287.468 161.248 288.176 160.733 288.698C160.218 289.22 159.521 289.514 158.793 289.515V289.515Z" fill="#FD9811"/>
<path d="M178.761 289.515H172.528C171.8 289.514 171.102 289.22 170.587 288.698C170.072 288.176 169.783 287.468 169.782 286.729V234.006C169.783 233.267 170.072 232.559 170.587 232.037C171.102 231.515 171.8 231.221 172.528 231.22H178.761C179.489 231.221 180.187 231.515 180.702 232.037C181.217 232.559 181.506 233.267 181.507 234.006V286.729C181.506 287.468 181.217 288.176 180.702 288.698C180.187 289.22 179.489 289.514 178.761 289.515V289.515Z" fill="#FD9811"/>
<path d="M143.207 188.66L140.532 194.374C140.219 195.041 139.659 195.555 138.973 195.802C138.287 196.05 137.533 196.012 136.875 195.696L89.9404 173.078C89.2833 172.761 88.7771 172.192 88.533 171.496C88.2888 170.8 88.3267 170.034 88.6381 169.367L91.3123 163.653C91.6253 162.986 92.1862 162.472 92.8719 162.225C93.5577 161.977 94.3122 162.015 94.9701 162.331L141.904 184.948C142.562 185.266 143.068 185.835 143.312 186.531C143.556 187.227 143.518 187.992 143.207 188.66Z" fill="#FD9811"/>
<path d="M150.277 191.723C150.41 192.372 150.308 193.048 149.991 193.627L146.978 199.165C146.625 199.811 146.035 200.289 145.335 200.494C144.636 200.698 143.885 200.613 143.247 200.257L121.192 190.391C120.555 190.033 120.084 189.434 119.882 188.724C119.681 188.015 119.764 187.253 120.116 186.606L120.116 186.606L125.642 176.114C125.817 175.794 126.051 175.512 126.333 175.283C126.615 175.055 126.938 174.885 127.285 174.784C127.631 174.683 127.994 174.651 128.352 174.692C128.71 174.733 129.057 174.845 129.373 175.022L149.181 188.309C149.823 188.669 150.022 190.793 150.225 191.508C150.246 191.579 150.263 191.651 150.277 191.723Z" fill="#2F2E41"/>
<path d="M177.395 184.948L224.329 162.331C224.987 162.015 225.741 161.977 226.427 162.225C227.113 162.472 227.674 162.986 227.987 163.653L230.661 169.367C230.972 170.034 231.01 170.8 230.766 171.496C230.522 172.192 230.016 172.761 229.359 173.078L182.424 195.696C181.767 196.012 181.012 196.05 180.326 195.802C179.641 195.555 179.08 195.041 178.767 194.374L176.093 188.66C175.781 187.992 175.743 187.227 175.987 186.531C176.231 185.835 176.738 185.266 177.395 184.948Z" fill="#FD9811"/>
<path d="M169.074 191.508C169.277 190.793 169.476 188.669 170.118 188.309L189.926 175.022C190.242 174.845 190.589 174.733 190.947 174.692C191.305 174.651 191.668 174.683 192.015 174.784C192.361 174.885 192.684 175.055 192.966 175.283C193.248 175.512 193.482 175.794 193.657 176.114L199.184 186.606L199.184 186.606C199.535 187.253 199.619 188.015 199.417 188.724C199.215 189.434 198.744 190.033 198.107 190.391L176.052 200.257C175.414 200.613 174.663 200.698 173.964 200.494C173.265 200.289 172.674 199.811 172.321 199.165L169.308 193.627C168.991 193.048 168.889 192.372 169.022 191.723C169.036 191.651 169.053 191.579 169.074 191.508Z" fill="#2F2E41"/>
<path d="M156.811 152.574L156.788 151.717C158.359 151.673 159.745 151.573 160.786 150.801C161.081 150.57 161.324 150.277 161.497 149.942C161.671 149.607 161.771 149.238 161.792 148.86C161.81 148.629 161.775 148.397 161.691 148.182C161.607 147.967 161.474 147.774 161.305 147.62C160.614 147.027 159.502 147.219 158.691 147.596L157.992 147.921L159.332 137.982L160.169 138.098L159.029 146.553C159.496 146.377 159.999 146.323 160.491 146.395C160.984 146.467 161.451 146.663 161.85 146.965C162.118 147.203 162.329 147.5 162.465 147.834C162.602 148.168 162.66 148.53 162.636 148.89C162.611 149.398 162.477 149.894 162.244 150.344C162.01 150.793 161.683 151.186 161.284 151.493C159.946 152.485 158.208 152.535 156.811 152.574Z" fill="#2F2E41"/>
<path d="M168.858 138.827H164.308V139.685H168.858V138.827Z" fill="#2F2E41"/>
<path d="M154.497 138.827H149.948V139.685H154.497V138.827Z" fill="#2F2E41"/>
<path d="M167.613 177.732H168.525C168.889 177.732 169.25 177.66 169.587 177.519C169.924 177.377 170.23 177.17 170.488 176.909C170.746 176.647 170.95 176.337 171.09 175.995C171.23 175.654 171.302 175.287 171.302 174.918C171.302 174.548 171.23 174.181 171.09 173.84C170.95 173.498 170.746 173.188 170.488 172.926C170.23 172.665 169.924 172.458 169.587 172.316C169.25 172.175 168.889 172.103 168.525 172.103H150.775C150.04 172.104 149.335 172.401 148.816 172.929C148.296 173.457 148.005 174.172 148.005 174.918C148.005 175.663 148.296 176.379 148.816 176.906C149.335 177.434 150.04 177.731 150.775 177.732H152.442C138.197 184.308 129.056 208.601 129.056 223.74C129.056 241.376 141.599 247.065 160.028 247.065C178.456 247.065 195.791 241.376 195.791 223.74C195.791 208.601 182.916 184.308 167.613 177.732Z" fill="#2F2E41"/>
<path d="M158.889 130.972C158.339 129.274 156.352 128.753 154.822 129.393C153.029 130.145 152.012 132.006 150.28 132.886C147.165 134.468 143.033 133.619 140.658 131.082C138.06 128.308 137.549 123.979 138.856 120.477C140.208 116.855 143.561 114.234 147.151 113.169C151.922 111.754 157.04 113.052 161.173 115.662C161.283 115.726 161.406 115.763 161.533 115.772C161.66 115.78 161.787 115.759 161.904 115.711C162.022 115.662 162.127 115.587 162.212 115.491C162.297 115.396 162.36 115.281 162.395 115.157C163.531 110.752 168.433 109.47 172.371 109.943C176.259 110.486 179.957 111.983 183.145 114.306C189.303 118.665 193.644 125.765 194.252 133.409C194.544 137.341 193.986 141.29 192.616 144.98C191.247 148.67 189.099 152.011 186.323 154.771C184.935 156.13 183.318 157.199 181.903 158.523C180.613 159.73 179.343 161.317 179.368 163.195C179.428 167.514 185.028 168.705 188.342 168.834C192.456 169.021 196.496 167.681 199.707 165.064C202.918 162.448 205.08 158.734 205.789 154.617C205.966 153.615 206.057 152.6 206.062 151.582C206.067 150.495 204.403 150.493 204.398 151.582C204.367 155.685 202.776 159.619 199.956 162.561C198.507 164.036 196.782 165.203 194.882 165.992C192.982 166.782 190.946 167.178 188.893 167.158C186.247 167.145 179.079 165.872 181.481 161.625C182.421 159.965 184.106 158.834 185.559 157.678C187.071 156.473 188.443 155.098 189.65 153.58C192.082 150.534 193.874 147.015 194.917 143.24C195.96 139.465 196.231 135.514 195.715 131.629C194.642 124.014 190.092 117.134 183.903 112.789C178.01 108.653 167.118 104.994 161.968 112.161C161.422 112.928 161.023 113.792 160.79 114.709L162.012 114.204C158.031 111.69 153.286 110.386 148.607 111.113C146.593 111.421 144.662 112.143 142.932 113.234C141.203 114.325 139.711 115.763 138.547 117.459C137.432 119.165 136.75 121.125 136.56 123.163C136.371 125.201 136.68 127.256 137.462 129.143C138.227 130.951 139.488 132.498 141.096 133.6C142.703 134.701 144.588 135.31 146.527 135.355C148.627 135.44 150.693 134.799 152.386 133.535C153.334 132.802 154.062 131.764 155.088 131.139C155.675 130.781 156.996 130.53 157.285 131.421C157.618 132.449 159.226 132.009 158.889 130.972V130.972Z" fill="#2F2E41"/>
<path d="M196.606 47.6146C200.735 47.8786 204.744 49.1317 208.303 51.2712C211.863 53.4108 214.872 56.3758 217.084 59.9234C217.704 60.9291 218.514 62.0342 218.084 63.2721C217.935 63.7468 217.631 64.1559 217.223 64.4327C216.814 64.7094 216.326 64.8374 215.836 64.7957C214.571 64.6394 213.754 63.3834 213.598 62.1798C213.422 60.8145 214.371 59.7427 215.543 59.2355C218.406 57.9959 221.296 59.9116 223.628 61.4404C228.943 64.924 234.79 68.0744 241.23 68.4714C247.189 68.8387 253.579 66.4678 256.894 61.2241C257.473 60.3067 256.034 59.459 255.457 60.3718C252.17 65.5723 245.524 67.44 239.746 66.6363C236.303 66.0849 232.978 64.9395 229.916 63.2496C228.328 62.4133 226.788 61.4862 225.279 60.5117C223.843 59.4949 222.321 58.6094 220.73 57.8658C218.078 56.7602 214.567 56.8466 212.714 59.392C210.986 61.7666 212.322 65.72 215.212 66.3876C217.952 67.0203 220.352 64.4058 219.788 61.6721C219.5 60.2737 218.462 58.9053 217.659 57.7623C215.246 54.3172 212.101 51.4655 208.458 49.417C204.814 47.3686 200.764 46.1756 196.606 45.9261C195.536 45.8723 195.539 47.561 196.606 47.6146L196.606 47.6146Z" fill="#CCCCCC"/>
<path d="M60.4223 74.1356C56.2934 73.8717 52.2848 72.6186 48.7253 70.479C45.1657 68.3395 42.1565 65.3744 39.9443 61.8269C39.3243 60.8212 38.515 59.716 38.9442 58.4781C39.0937 58.0035 39.3975 57.5943 39.8058 57.3176C40.2142 57.0408 40.703 56.9128 41.1924 56.9545C42.4577 57.1108 43.2743 58.3669 43.4302 59.5704C43.607 60.9357 42.6578 62.0075 41.4859 62.5148C38.6222 63.7543 35.733 61.8387 33.4003 60.3099C28.0852 56.8263 22.239 53.6759 15.7985 53.2789C9.83953 52.9116 3.44946 55.2825 0.135004 60.5261C-0.444872 61.4435 0.994892 62.2913 1.57189 61.3784C4.85903 56.178 11.5042 54.3102 17.2821 55.114C20.7253 55.6653 24.0501 56.8108 27.1123 58.5006C28.7004 59.3369 30.2407 60.264 31.7498 61.2386C33.1859 62.2554 34.708 63.1408 36.2983 63.8845C38.9506 64.99 42.4616 64.9036 44.3143 62.3583C46.0426 59.9836 44.7069 56.0302 41.8161 55.3626C39.0765 54.7299 36.6765 57.3444 37.2403 60.0781C37.5287 61.4765 38.5664 62.845 39.3697 63.988C41.783 67.433 44.9273 70.2848 48.5708 72.3332C52.2143 74.3817 56.2643 75.5746 60.4225 75.8242C61.4929 75.8779 61.4901 74.1892 60.4225 74.1356L60.4223 74.1356Z" fill="#CCCCCC"/>
<path d="M252.325 290H79.2153C79.0948 290 78.9793 289.951 78.8941 289.865C78.8088 289.778 78.761 289.661 78.761 289.539C78.761 289.417 78.8088 289.299 78.8941 289.213C78.9793 289.126 79.0948 289.078 79.2153 289.078H252.325C252.445 289.078 252.561 289.126 252.646 289.213C252.731 289.299 252.779 289.417 252.779 289.539C252.779 289.661 252.731 289.778 252.646 289.865C252.561 289.951 252.445 290 252.325 290Z" fill="#3F3D56"/>
<!-- </g> -->
<defs>
<clipPath id="clip0">
<rect width="280" height="290" fill="white"/>
</clipPath>
</defs>
</svg>
